<?xml version="1.0" encoding="utf-8" ?><svg xmlns="http://www.w3.org/2000/svg" xmlns:xlink="http://www.w3.org/1999/xlink" width="2816" height="1536" viewBox="0 0 2816 1536"><path fill="#3375A2" d="M1522.48 239.827C1529.65 242.313 1537.12 244.698 1544.34 247.097C1548.48 257.511 1552.82 267.85 1557.33 278.111C1562.79 280.542 1567.89 282.845 1573.22 285.526L1574.94 286.481C1589.89 291.042 1608.21 298.062 1623.01 303.665C1646.53 312.32 1670.13 320.792 1693.78 329.08C1700.13 331.466 1739.14 364.701 1749.79 371.771C1751.97 374.175 1751.71 376.506 1752 379.876C1754.58 383.668 1754.27 389.099 1754.68 393.962C1755.42 406.209 1753.28 438.871 1748.79 450.29C1747.64 456.608 1746.17 461.88 1744.47 468.036C1741.26 475.981 1738.84 481.847 1734.8 489.493C1732.26 487.947 1725.55 484.231 1724.14 482.187L1722.84 481.951C1715.85 476.259 1712.33 472.955 1705.34 480.376C1703.09 484.358 1703.07 483.005 1703.62 486.733C1708.65 493.362 1711.87 492.021 1716.82 499.751L1718.6 502.079C1717.05 507.778 1693.97 521.236 1687.95 524.906L1640.42 525.468L1627.37 526.131C1622.29 526.533 1618.16 525.976 1614.79 528.937C1613.79 532.437 1613.52 534.693 1613.01 538.25C1609.02 564.084 1606.74 598.975 1602.01 623.151C1601.5 627.684 1601.05 630.05 1600.04 634.43C1600.37 641.674 1597.59 650.928 1597.06 658.399C1596.14 662.653 1595.26 666.917 1594.42 671.189L1592.71 674.026C1577.53 689.002 1563.2 706.68 1548.76 722.45C1545.63 725.862 1533.35 740.324 1530.67 742.252C1527.17 746.491 1524.11 750.203 1520.3 754.166C1514.25 762.213 1503.9 772.987 1496.87 780.633C1494 783.423 1491.07 786.161 1488.1 788.847C1484.54 793.508 1485.68 813.53 1485.65 820.276C1485.53 841.663 1485.69 863.05 1486.14 884.432C1487.75 889.814 1499.06 896.491 1504 900.003C1516.52 908.902 1521.97 917.052 1527.23 931.631C1514.87 931.589 1452.64 933.287 1445.12 930.964C1443.92 929.034 1444.02 929.158 1443.92 926.868C1441.21 917.576 1437.27 906.582 1434.02 897.379C1429.13 883.113 1422.68 866.022 1418.55 851.766C1416.94 851.142 1416.31 850.586 1414.54 851.686C1396.86 862.638 1379.29 872.838 1360.95 882.717C1347.4 881.683 1293.18 864.097 1288.74 865.896C1286.1 870.006 1279.08 879.842 1279.33 884.193C1281.09 885.38 1280.69 885.285 1282.64 885.965C1297.03 887.027 1313.01 888.731 1326.72 893.468C1345.36 899.911 1352.84 915.466 1362.65 931.41C1354.59 931.45 1325.21 932.068 1318.64 931.114C1314.96 931.396 1311.42 931.414 1307.73 931.38C1252.83 930.877 1197.8 931.832 1142.91 931.105C1141.6 926.504 1139.66 921.649 1137.77 917.226C1117.61 870.157 1094.6 824.416 1074.01 777.546C1071.01 770.727 1067.86 764.039 1065.51 756.962C1064.93 756.341 1064.37 754.884 1063.95 754.015C1063.83 750.684 1063.97 751.258 1065.11 748.341C1086.15 694.455 1109.23 641.582 1131.88 588.352C1135.5 579.863 1138.99 571.065 1143.05 562.848L1322.78 477.943C1330.33 466.547 1337.25 454.141 1344.38 442.401C1356 423.515 1367.48 404.547 1378.83 385.499C1382.52 379.193 1398.86 350.115 1401.44 347.054C1401.99 345.269 1402.76 343.967 1403.63 342.325L1405.27 337.902C1404.54 332.214 1386.71 313.788 1381.25 305.551C1385.95 287.05 1385.27 260.121 1406.87 255.937C1413.37 254.677 1416.47 250.6 1422.21 255.244C1435.87 265.032 1452.52 279.016 1466.85 287.899C1467.84 288.507 1472.78 288.072 1474.39 287.942C1477.07 285.864 1494.21 284.722 1498.68 284.305C1499.32 270.634 1513.41 249.41 1522.48 239.827Z"/><path fill="#F9B06C" d="M1322.78 477.943C1324.5 479.554 1324.07 478.824 1325 480.875L1325.75 483.37C1340.46 562.389 1357.53 646.552 1374.11 725.376C1326.42 708.909 1271.68 687.075 1224 672.807C1233.86 693.877 1287.19 781.04 1289.38 793.695C1292.45 811.421 1289.21 844.262 1290.04 864.083L1288.9 864.191L1287.84 865.704L1288.74 865.896C1286.1 870.006 1279.08 879.842 1279.33 884.193C1281.09 885.38 1280.69 885.285 1282.64 885.965C1297.03 887.027 1313.01 888.731 1326.72 893.468C1345.36 899.911 1352.84 915.466 1362.65 931.41C1354.59 931.45 1325.21 932.068 1318.64 931.114C1314.96 931.396 1311.42 931.414 1307.73 931.38C1252.83 930.877 1197.8 931.832 1142.91 931.105C1141.6 926.504 1139.66 921.649 1137.77 917.226C1117.61 870.157 1094.6 824.416 1074.01 777.546C1071.01 770.727 1067.86 764.039 1065.51 756.962C1064.93 756.341 1064.37 754.884 1063.95 754.015C1063.83 750.684 1063.97 751.258 1065.11 748.341C1086.15 694.455 1109.23 641.582 1131.88 588.352C1135.5 579.863 1138.99 571.065 1143.05 562.848L1322.78 477.943Z"/><path fill="#125360" d="M1065.18 753.192C1095.1 770.008 1127.5 784.489 1158.13 800.262C1162.12 802.317 1178.59 809.176 1181.19 811.496L1181.53 810.813C1184.85 813.794 1283.15 862.254 1288.9 864.191L1287.84 865.704L1288.74 865.896C1286.1 870.006 1279.08 879.842 1279.33 884.193C1281.09 885.38 1280.69 885.285 1282.64 885.965C1297.03 887.027 1313.01 888.731 1326.72 893.468C1345.36 899.911 1352.84 915.466 1362.65 931.41C1354.59 931.45 1325.21 932.068 1318.64 931.114C1314.96 931.396 1311.42 931.414 1307.73 931.38C1252.83 930.877 1197.8 931.832 1142.91 931.105C1141.6 926.504 1139.66 921.649 1137.77 917.226C1117.61 870.157 1094.6 824.416 1074.01 777.546C1071.01 770.727 1067.86 764.039 1065.51 756.962L1065.18 753.192Z"/><path fill="#EA7A55" d="M1181.53 810.813C1184.85 813.794 1283.15 862.254 1288.9 864.191L1287.84 865.704C1277.37 871.709 1252.86 881.936 1241.08 887.225C1208.82 901.439 1176.75 916.096 1144.88 931.192C1157.46 891.438 1169.56 851.537 1181.19 811.496L1181.53 810.813Z"/><path fill="#1F6B6B" d="M1282.64 885.965C1297.03 887.027 1313.01 888.731 1326.72 893.468C1345.36 899.911 1352.84 915.466 1362.65 931.41C1354.59 931.45 1325.21 932.068 1318.64 931.114C1312.08 928.669 1261.34 929.995 1249.71 929.737C1257.92 918.897 1263.75 905.308 1271.71 894.168C1275.9 888.298 1275.72 887.332 1282.64 885.965Z"/><path fill="#125360" d="M1065.51 756.962C1064.93 756.341 1064.37 754.884 1063.95 754.015C1063.83 750.684 1063.97 751.258 1065.11 748.341C1086.15 694.455 1109.23 641.582 1131.88 588.352C1135.5 579.863 1138.99 571.065 1143.05 562.848L1224.01 673.374C1219.75 684.557 1216.36 696.907 1212.96 708.455C1202.88 742.696 1192.41 776.818 1181.53 810.813L1181.19 811.496C1178.59 809.176 1162.12 802.317 1158.13 800.262C1127.5 784.489 1095.1 770.008 1065.18 753.192L1065.51 756.962Z"/><path fill="#368F8B" d="M1212.85 678.288C1217.51 675.485 1218.92 675.068 1224.01 673.374C1219.75 684.557 1216.36 696.907 1212.96 708.455C1202.88 742.696 1192.41 776.818 1181.53 810.813L1181.19 811.496C1178.59 809.176 1162.12 802.317 1158.13 800.262C1127.5 784.489 1095.1 770.008 1065.18 753.192C1068.47 750.657 1075.6 747.916 1079.65 745.821C1123.8 722.951 1168.35 700.477 1212.85 678.288Z"/><path fill="#368F8B" d="M1322.78 477.943C1324.5 479.554 1324.07 478.824 1325 480.875L1322.61 480.871C1302.63 517.349 1284.47 555.581 1264.93 592.284C1259.43 602.605 1244.96 633.496 1239.77 640.843L1225.38 669.066L1224.01 673.374L1143.05 562.848L1322.78 477.943Z"/><path fill="#F9B06C" d="M1522.48 239.827C1529.65 242.313 1537.12 244.698 1544.34 247.097C1548.48 257.511 1552.82 267.85 1557.33 278.111C1562.79 280.542 1567.89 282.845 1573.22 285.526L1574.94 286.481C1589.89 291.042 1608.21 298.062 1623.01 303.665C1646.53 312.32 1670.13 320.792 1693.78 329.08C1700.13 331.466 1739.14 364.701 1749.79 371.771C1751.97 374.175 1751.71 376.506 1752 379.876C1754.58 383.668 1754.27 389.099 1754.68 393.962C1755.42 406.209 1753.28 438.871 1748.79 450.29C1747.64 456.608 1746.17 461.88 1744.47 468.036C1741.26 475.981 1738.84 481.847 1734.8 489.493C1732.26 487.947 1725.55 484.231 1724.14 482.187L1722.84 481.951C1715.85 476.259 1712.33 472.955 1705.34 480.376C1703.09 484.358 1703.07 483.005 1703.62 486.733C1708.65 493.362 1711.87 492.021 1716.82 499.751L1718.6 502.079C1717.05 507.778 1693.97 521.236 1687.95 524.906L1640.42 525.468L1627.37 526.131C1621.37 525.922 1618.8 525.903 1612.87 526.608C1608.86 516.415 1591.86 490.919 1585.1 480.123C1570.06 455.869 1555.2 431.509 1540.52 407.043C1540.42 406.99 1540.32 406.937 1540.23 406.885C1501.6 403.321 1463.05 398.526 1424.51 394.096C1422.88 393.907 1422.27 394.346 1421.13 394.915C1419.84 397.165 1419.88 398.714 1419.58 401.276C1418.18 396.647 1417.06 395.834 1418.27 391.955C1414.33 387.543 1410.94 351.628 1408.38 341.595L1407.01 341.327C1405.11 343.372 1403.45 345.12 1401.44 347.054C1401.99 345.269 1402.76 343.967 1403.63 342.325L1405.27 337.902C1404.54 332.214 1386.71 313.788 1381.25 305.551C1385.95 287.05 1385.27 260.121 1406.87 255.937C1413.37 254.677 1416.47 250.6 1422.21 255.244C1435.87 265.032 1452.52 279.016 1466.85 287.899C1467.84 288.507 1472.78 288.072 1474.39 287.942C1477.07 285.864 1494.21 284.722 1498.68 284.305C1499.32 270.634 1513.41 249.41 1522.48 239.827Z"/><path fill="#F5EBC6" d="M1522.48 239.827C1529.65 242.313 1537.12 244.698 1544.34 247.097C1548.48 257.511 1552.82 267.85 1557.33 278.111C1562.79 280.542 1567.89 282.845 1573.22 285.526L1574.94 286.481C1589.89 291.042 1608.21 298.062 1623.01 303.665C1646.53 312.32 1670.13 320.792 1693.78 329.08L1694.77 331.919C1689.9 341.722 1675.79 365.701 1669.54 374.865C1645.64 366.399 1616.62 352.088 1592.67 342.032C1567.36 331.607 1542.19 320.877 1517.14 309.843C1505.61 304.857 1490.68 299.035 1479.77 293.529C1475.9 292.236 1472.79 291.242 1469.05 289.51L1474.39 287.942C1477.07 285.864 1494.21 284.722 1498.68 284.305C1499.32 270.634 1513.41 249.41 1522.48 239.827Z"/><path fill="#1F6B6B" d="M1522.48 239.827C1529.65 242.313 1537.12 244.698 1544.34 247.097C1548.48 257.511 1552.82 267.85 1557.33 278.111C1562.79 280.542 1567.89 282.845 1573.22 285.526L1564.88 283.464C1561.06 285.708 1516.73 285.846 1509 287.874C1504.51 289.051 1502.11 287.763 1500.06 292.921C1497.97 296.216 1483.56 293.982 1479.77 293.529C1475.9 292.236 1472.79 291.242 1469.05 289.51L1474.39 287.942C1477.07 285.864 1494.21 284.722 1498.68 284.305C1499.32 270.634 1513.41 249.41 1522.48 239.827Z"/><path fill="#0f172a" d="M1474.39 287.942C1488.29 288.306 1505.18 284.416 1519.26 283.962C1532.56 283.533 1553.33 277.907 1564.88 283.464C1561.06 285.708 1516.73 285.846 1509 287.874C1504.51 289.051 1502.11 287.763 1500.06 292.921C1497.97 296.216 1483.56 293.982 1479.77 293.529C1475.9 292.236 1472.79 291.242 1469.05 289.51L1474.39 287.942Z"/><path fill="#0f172a" d="M1574.94 286.481C1589.89 291.042 1608.21 298.062 1623.01 303.665C1622.02 305.088 1622.5 304.58 1620.79 305.381C1610.27 301.855 1581.25 294.512 1574.39 288.178L1574.94 286.481Z"/><path fill="#368F8B" d="M1693.78 329.08C1700.13 331.466 1739.14 364.701 1749.79 371.771C1751.97 374.175 1751.71 376.506 1752 379.876C1754.58 383.668 1754.27 389.099 1754.68 393.962C1755.42 406.209 1753.28 438.871 1748.79 450.29C1747.64 456.608 1746.17 461.88 1744.47 468.036C1741.26 475.981 1738.84 481.847 1734.8 489.493C1732.26 487.947 1725.55 484.231 1724.14 482.187L1722.84 481.951C1722.46 472.201 1725.88 448.641 1727.25 438.32C1727.17 436.18 1727.94 432.224 1728.3 429.979C1727.09 424.26 1721.63 421.633 1717.23 425.911C1716.67 422.083 1717.43 423.511 1713.77 420.74L1714.53 418.826C1712.28 414.537 1709.59 410.166 1707.11 405.977C1697.32 414.284 1696.54 404.351 1689.17 408.406C1683.85 406.319 1678.32 403.565 1673.12 401.097C1672.15 399.228 1671.87 393.684 1671.61 391.237C1671.42 387.179 1670.11 379.18 1669.54 374.865C1675.79 365.701 1689.9 341.722 1694.77 331.919L1693.78 329.08Z"/><path fill="#F6D49C" d="M1754.68 393.962C1755.42 406.209 1753.28 438.871 1748.79 450.29C1747.64 456.608 1746.17 461.88 1744.47 468.036C1741.26 475.981 1738.84 481.847 1734.8 489.493C1732.26 487.947 1725.55 484.231 1724.14 482.187L1722.84 481.951C1722.46 472.201 1725.88 448.641 1727.25 438.32C1727.17 436.18 1727.94 432.224 1728.3 429.979C1729.55 422.636 1727.26 425.262 1731.22 419.894C1729.76 414.263 1735.58 404.183 1738.38 398.407C1740.46 401.604 1737.21 400.977 1740.54 404.341C1742.75 403.651 1743.86 401.267 1745.51 399.033C1751.91 398.268 1751.04 398.463 1754.68 393.962Z"/><path fill="#0B2744" d="M1754.68 393.962C1755.42 406.209 1753.28 438.871 1748.79 450.29C1748.83 446.533 1750.44 437.017 1750.87 432.368C1751.86 421.729 1752.39 412.049 1752.86 401.366C1748.58 404.736 1744.22 408.596 1740.06 412.162L1731.22 419.894C1729.76 414.263 1735.58 404.183 1738.38 398.407C1740.46 401.604 1737.21 400.977 1740.54 404.341C1742.75 403.651 1743.86 401.267 1745.51 399.033C1751.91 398.268 1751.04 398.463 1754.68 393.962Z"/><path fill="#F5EBC6" d="M1727.25 438.32L1728.79 439.18C1731.38 455.013 1724.94 470.3 1725.99 481.752L1724.14 482.187L1722.84 481.951C1722.46 472.201 1725.88 448.641 1727.25 438.32Z"/><path fill="#6FB5A6" d="M1693.78 329.08C1700.13 331.466 1739.14 364.701 1749.79 371.771L1748.61 374.135C1722.46 374.08 1695.66 373.871 1669.54 374.865C1675.79 365.701 1689.9 341.722 1694.77 331.919L1693.78 329.08Z"/><path fill="#0B3351" d="M1673.12 401.097C1675.63 395.595 1689.78 385.581 1695.96 389.333C1700.3 391.967 1704.49 401.346 1707.11 405.977C1697.32 414.284 1696.54 404.351 1689.17 408.406C1683.85 406.319 1678.32 403.565 1673.12 401.097Z"/><path fill="#0C3150" d="M1752 379.876C1754.58 383.668 1754.27 389.099 1754.68 393.962C1751.04 398.463 1751.91 398.268 1745.51 399.033C1743.86 401.267 1742.75 403.651 1740.54 404.341C1737.21 400.977 1740.46 401.604 1738.38 398.407L1743.18 386.64L1753.03 396.414C1752.43 390.719 1751.71 385.61 1752 379.876Z"/><path fill="#F6D49C" d="M1671.61 391.237C1671.87 393.684 1672.15 399.228 1673.12 401.097C1678.32 403.565 1683.85 406.319 1689.17 408.406C1696.54 404.351 1697.32 414.284 1707.11 405.977C1709.59 410.166 1712.28 414.537 1714.53 418.826L1713.77 420.74C1717.43 423.511 1716.67 422.083 1717.23 425.911C1721.63 421.633 1727.09 424.26 1728.3 429.979C1727.94 432.224 1727.17 436.18 1727.25 438.32C1725.88 448.641 1722.46 472.201 1722.84 481.951C1715.85 476.259 1712.33 472.955 1705.34 480.376L1704.66 478.685L1701.19 481.52C1695.07 479.296 1692.89 485.14 1684.87 484.046C1675.59 482.78 1663.29 474.961 1656 474.229C1652.37 471.001 1648.54 465.999 1645.4 462.163L1649.49 462.451C1654.37 454.097 1656.83 432.24 1661.18 422.536C1665.29 413.373 1667.87 400.285 1671.61 391.237Z"/><path fill="#0B3351" d="M1717.23 425.911C1721.63 421.633 1727.09 424.26 1728.3 429.979C1727.94 432.224 1727.17 436.18 1727.25 438.32C1725.88 448.641 1722.46 472.201 1722.84 481.951C1715.85 476.259 1712.33 472.955 1705.34 480.376L1704.66 478.685C1709.07 473.35 1710.44 460.645 1712.48 452.937C1713.43 446.986 1714.67 440.845 1715.79 434.903C1716 431.33 1716.48 429.378 1717.23 425.911Z"/><path fill="#0C3150" d="M1715.79 434.903C1716.03 436.696 1715.92 439.488 1717.14 440.583C1722.77 445.653 1720.34 454.461 1720.66 461.155C1720.86 465.165 1718.79 468.82 1717.89 472.904C1715.33 468.335 1714.5 458.603 1714.39 453.296L1712.48 452.937C1713.43 446.986 1714.67 440.845 1715.79 434.903Z"/><path fill="#0B2744" d="M1707.11 405.977C1709.59 410.166 1712.28 414.537 1714.53 418.826L1713.77 420.74C1706.95 416.805 1696.4 411.93 1689.17 408.406C1696.54 404.351 1697.32 414.284 1707.11 405.977Z"/><path fill="#125360" d="M1381.25 305.551C1385.95 287.05 1385.27 260.121 1406.87 255.937C1413.37 254.677 1416.47 250.6 1422.21 255.244C1435.87 265.032 1452.52 279.016 1466.85 287.899C1467.84 288.507 1472.78 288.072 1474.39 287.942L1469.05 289.51L1467.06 289.948C1464.67 294.459 1450.91 321.411 1450.9 324.415L1447.67 330.228L1445.72 327.119C1439.22 326.167 1409.2 338.134 1403.63 342.325L1405.27 337.902C1404.54 332.214 1386.71 313.788 1381.25 305.551Z"/><path fill="#EA7A55" d="M1450.9 324.415C1447.61 313.101 1420.39 263.917 1419.91 255.701L1422.21 255.244C1435.87 265.032 1452.52 279.016 1466.85 287.899C1467.84 288.507 1472.78 288.072 1474.39 287.942L1469.05 289.51L1467.06 289.948C1464.67 294.459 1450.91 321.411 1450.9 324.415Z"/><path fill="#F6D49C" d="M1628.89 469.474C1633.32 466.623 1640.76 460.312 1645.4 462.163C1648.54 465.999 1652.37 471.001 1656 474.229C1663.29 474.961 1675.59 482.78 1684.87 484.046C1692.89 485.14 1695.07 479.296 1701.19 481.52L1704.66 478.685L1705.34 480.376C1703.09 484.358 1703.07 483.005 1703.62 486.733C1708.65 493.362 1711.87 492.021 1716.82 499.751L1718.6 502.079C1717.05 507.778 1693.97 521.236 1687.95 524.906L1640.42 525.468C1638.46 524.791 1638 524.919 1636.78 523.34C1638.77 521.35 1644.91 497.194 1645.64 492.542C1641.35 488.149 1639.73 487.541 1639.13 482.297C1638.43 480.885 1630.42 471.342 1628.89 469.474Z"/><path fill="#0C3150" d="M1628.89 469.474C1633.32 466.623 1640.76 460.312 1645.4 462.163C1648.54 465.999 1652.37 471.001 1656 474.229C1663.29 474.961 1675.59 482.78 1684.87 484.046C1692.89 485.14 1695.07 479.296 1701.19 481.52L1704.66 478.685L1705.34 480.376C1703.09 484.358 1703.07 483.005 1703.62 486.733C1708.65 493.362 1711.87 492.021 1716.82 499.751C1715.69 498.876 1710.9 494.885 1709.8 495.631C1700.73 501.766 1690.52 505.076 1679.55 504.881C1662.14 504.572 1650.41 494.142 1639.13 482.297C1638.43 480.885 1630.42 471.342 1628.89 469.474Z"/><path fill="#F5EBC6" d="M1656 474.229C1663.29 474.961 1675.59 482.78 1684.87 484.046C1692.89 485.14 1695.07 479.296 1701.19 481.52C1697.44 484.038 1696.42 484.702 1692.24 486.342C1681.41 488.554 1679.96 488.052 1669 485.451C1663.35 480.458 1661.79 480.784 1656 474.229Z"/><path fill="#0B2744" d="M1669 485.451C1679.96 488.052 1681.41 488.554 1692.24 486.342L1693.85 486.771L1694.14 488.054C1688.32 492.148 1671.38 494.678 1669 485.451Z"/><path fill="#1F6B6B" d="M1403.63 342.325C1409.2 338.134 1439.22 326.167 1445.72 327.119L1447.67 330.228C1446.04 333.806 1437.51 352.818 1435.71 354.926C1433.71 359.285 1431.8 363.805 1429.3 367.885C1425.95 376.056 1422.28 384.086 1418.27 391.955C1414.33 387.543 1410.94 351.628 1408.38 341.595L1407.01 341.327C1405.11 343.372 1403.45 345.12 1401.44 347.054C1401.99 345.269 1402.76 343.967 1403.63 342.325Z"/><path fill="#125360" d="M1429.3 367.885C1426.96 364.702 1427.69 351.918 1430.5 348.981L1431.82 348.992L1433.46 353.217L1434.31 353.061L1435.71 354.926C1433.71 359.285 1431.8 363.805 1429.3 367.885Z"/><path fill="#0B3351" d="M1532.22 363.035C1513 356.194 1512.05 371.025 1499.47 370.35C1495.95 368.563 1496.93 369.636 1495.05 366.449C1493.38 346.15 1536.31 322.219 1549.6 355.735C1553.58 363.563 1553.67 366.506 1554.1 375.335C1537.2 371.25 1543.54 372.958 1532.22 363.035Z"/><path fill="#0C3150" d="M1549.6 355.735C1553.58 363.563 1553.67 366.506 1554.1 375.335C1537.2 371.25 1543.54 372.958 1532.22 363.035C1534.8 360.832 1538.71 363.216 1544.85 360.366C1548.02 361.366 1545.59 365.404 1548.83 369.19C1551.03 366.724 1547.88 361.239 1549.6 355.735Z"/><path fill="#EA7A55" d="M1419.58 401.276C1419.88 398.714 1419.84 397.165 1421.13 394.915C1422.27 394.346 1422.88 393.907 1424.51 394.096C1463.05 398.526 1501.6 403.321 1540.23 406.885C1540.32 406.937 1540.42 406.99 1540.52 407.043C1555.2 431.509 1570.06 455.869 1585.1 480.123C1591.86 490.919 1608.86 516.415 1612.87 526.608C1618.8 525.903 1621.37 525.922 1627.37 526.131C1622.29 526.533 1618.16 525.976 1614.79 528.937C1613.79 532.437 1613.52 534.693 1613.01 538.25C1609.02 564.084 1606.74 598.975 1602.01 623.151C1601.5 627.684 1601.05 630.05 1600.04 634.43C1600.37 641.674 1597.59 650.928 1597.06 658.399C1596.14 662.653 1595.26 666.917 1594.42 671.189L1592.71 674.026C1577.53 689.002 1563.2 706.68 1548.76 722.45C1545.63 725.862 1533.35 740.324 1530.67 742.252C1527.17 746.491 1524.11 750.203 1520.3 754.166C1514.25 762.213 1503.9 772.987 1496.87 780.633C1494 783.423 1491.07 786.161 1488.1 788.847C1485.27 783.059 1488.02 663.069 1487.26 645.191L1486.08 645.314C1486.04 645.453 1452.44 505.579 1450.19 501.788L1450.28 501.165C1446.4 491.147 1441.82 474.791 1438.52 464.157C1431.9 443.289 1425.58 422.327 1419.58 401.276Z"/><path fill="#CBD1AF" d="M1558.94 578.91L1559.92 579.78C1572.81 591.174 1588.22 599.963 1601.17 611.21C1602.64 612.488 1602.1 620.965 1602.01 623.151C1601.5 627.684 1601.05 630.05 1600.04 634.43C1600.37 641.674 1597.59 650.928 1597.06 658.399C1596.14 662.653 1595.26 666.917 1594.42 671.189L1592.71 674.026C1577.53 689.002 1563.2 706.68 1548.76 722.45C1545.63 725.862 1533.35 740.324 1530.67 742.252C1527.17 746.491 1524.11 750.203 1520.3 754.166C1514.25 762.213 1503.9 772.987 1496.87 780.633C1494 783.423 1491.07 786.161 1488.1 788.847C1485.27 783.059 1488.02 663.069 1487.26 645.191L1488.84 644.076L1489.24 643.083C1494.31 639.517 1509.25 625.137 1514.28 620.318C1527.53 607.622 1543.01 594.235 1555.62 581.135L1558.94 578.91Z"/><path fill="#F5EBC6" d="M1558.94 578.91L1559.92 579.78C1572.81 591.174 1588.22 599.963 1601.17 611.21C1602.64 612.488 1602.1 620.965 1602.01 623.151C1601.5 627.684 1601.05 630.05 1600.04 634.43C1600.37 641.674 1597.59 650.928 1597.06 658.399C1596.14 662.653 1595.26 666.917 1594.42 671.189L1593.01 671.444L1591.95 670.452C1578.43 662.555 1493.13 649.073 1488.84 644.076L1489.24 643.083C1494.31 639.517 1509.25 625.137 1514.28 620.318C1527.53 607.622 1543.01 594.235 1555.62 581.135L1558.94 578.91Z"/><path fill="#0f172a" d="M1591.95 670.452C1590.11 648.044 1594.9 644.984 1598.15 623.355L1599.14 623.575L1600.04 634.43C1600.37 641.674 1597.59 650.928 1597.06 658.399C1596.14 662.653 1595.26 666.917 1594.42 671.189L1593.01 671.444L1591.95 670.452Z"/><path fill="#125360" d="M1451.84 502.581L1612.87 526.608C1618.8 525.903 1621.37 525.922 1627.37 526.131C1622.29 526.533 1618.16 525.976 1614.79 528.937C1613.79 532.437 1613.52 534.693 1613.01 538.25C1609.02 564.084 1606.74 598.975 1602.01 623.151C1602.1 620.965 1602.64 612.488 1601.17 611.21C1588.22 599.963 1572.81 591.174 1559.92 579.78L1558.94 578.91L1558.95 578.292C1554.56 577.23 1462.11 509.987 1451.84 502.581Z"/><path fill="#F9B06C" d="M1558.95 578.292C1564.62 572.953 1610.16 530.343 1612.41 529.49C1613.58 532.006 1613.11 535.367 1613.01 538.25C1609.02 564.084 1606.74 598.975 1602.01 623.151C1602.1 620.965 1602.64 612.488 1601.17 611.21C1588.22 599.963 1572.81 591.174 1559.92 579.78L1558.94 578.91L1558.95 578.292Z"/><path fill="#F59257" d="M1419.58 401.276C1419.88 398.714 1419.84 397.165 1421.13 394.915C1422.27 394.346 1422.88 393.907 1424.51 394.096C1463.05 398.526 1501.6 403.321 1540.23 406.885C1540.32 406.937 1540.42 406.99 1540.52 407.043C1536.24 409.469 1534.82 412.377 1532.03 414.895C1520.91 424.908 1457.56 498.976 1450.28 501.165C1446.4 491.147 1441.82 474.791 1438.52 464.157C1431.9 443.289 1425.58 422.327 1419.58 401.276Z"/><path fill="#F59257" d="M1489.24 643.083L1489.46 640.003C1493.74 634.301 1507.72 623.027 1513.49 617.373C1525.29 605.794 1540.11 589.589 1553.52 580.089L1555.62 581.135C1543.01 594.235 1527.53 607.622 1514.28 620.318C1509.25 625.137 1494.31 639.517 1489.24 643.083Z"/><path fill="#EA7A55" d="M1486.08 645.314L1487.26 645.191C1488.02 663.069 1485.27 783.059 1488.1 788.847C1484.54 793.508 1485.68 813.53 1485.65 820.276C1485.53 841.663 1485.69 863.05 1486.14 884.432C1487.75 889.814 1499.06 896.491 1504 900.003C1516.52 908.902 1521.97 917.052 1527.23 931.631C1514.87 931.589 1452.64 933.287 1445.12 930.964C1443.92 929.034 1444.02 929.158 1443.92 926.868C1441.21 917.576 1437.27 906.582 1434.02 897.379C1429.13 883.113 1422.68 866.022 1418.55 851.766C1418.45 848.706 1378.43 735.617 1374.28 725.785C1407.69 701.166 1441.88 677.418 1475.4 652.954C1478.9 650.4 1482.29 647.984 1486.03 645.762L1486.08 645.314Z"/><path fill="#F9B06C" d="M1486.08 645.314L1487.26 645.191C1488.02 663.069 1485.27 783.059 1488.1 788.847C1484.54 793.508 1485.68 813.53 1485.65 820.276C1485.53 841.663 1485.69 863.05 1486.14 884.432C1487.75 889.814 1499.06 896.491 1504 900.003C1516.52 908.902 1521.97 917.052 1527.23 931.631C1514.87 931.589 1452.64 933.287 1445.12 930.964C1443.92 929.034 1444.02 929.158 1443.92 926.868C1441.21 917.576 1437.27 906.582 1434.02 897.379C1433.14 887.686 1440.59 860.01 1443.03 848.758C1450.41 813.582 1458.01 778.453 1465.82 743.372L1478.35 686.562C1480.97 674.916 1486.3 656.848 1486.03 645.762L1486.08 645.314Z"/><path fill="#368F8B" d="M1486.14 884.432C1487.75 889.814 1499.06 896.491 1504 900.003C1516.52 908.902 1521.97 917.052 1527.23 931.631C1514.87 931.589 1452.64 933.287 1445.12 930.964C1443.92 929.034 1444.02 929.158 1443.92 926.868C1445 927.62 1445.99 928.165 1447.13 928.828C1454.49 924.727 1477.42 895.877 1484.65 889.074C1485.55 888.222 1485.97 885.691 1486.14 884.432Z"/><path fill="#125360" d="M1290.04 864.083C1299.88 849.952 1311.63 829.295 1320.81 814.146L1374.28 725.785C1378.43 735.617 1418.45 848.706 1418.55 851.766C1416.94 851.142 1416.31 850.586 1414.54 851.686C1396.86 862.638 1379.29 872.838 1360.95 882.717C1347.4 881.683 1293.18 864.097 1288.74 865.896L1287.84 865.704L1288.9 864.191L1290.04 864.083Z"/><path fill="#368F8B" d="M1401.44 347.054C1403.45 345.12 1405.11 343.372 1407.01 341.327L1408.38 341.595C1410.94 351.628 1414.33 387.543 1418.27 391.955C1417.06 395.834 1418.18 396.647 1419.58 401.276C1425.58 422.327 1431.9 443.289 1438.52 464.157C1441.82 474.791 1446.4 491.147 1450.28 501.165L1450.19 501.788C1413.22 496.856 1366.37 484.319 1327.63 477.796L1326.46 480.131L1325.75 483.37L1325 480.875C1324.07 478.824 1324.5 479.554 1322.78 477.943C1330.33 466.547 1337.25 454.141 1344.38 442.401C1356 423.515 1367.48 404.547 1378.83 385.499C1382.52 379.193 1398.86 350.115 1401.44 347.054Z"/><path fill="#125360" d="M1326.46 480.131L1327.63 477.796C1366.37 484.319 1413.22 496.856 1450.19 501.788C1452.44 505.579 1486.04 645.453 1486.08 645.314C1483.64 643.82 1463.11 621.824 1459.95 618.521L1363.8 517.584C1358.43 511.966 1330.91 482.549 1326.46 480.131Z"/><path fill="#279BB6" d="M1110.1 1046.96C1110.11 1050.27 1109.61 1056.05 1111.23 1058.54C1114 1057.77 1112.09 1058.62 1113.95 1056.94C1123.83 1048 1134.55 1045.14 1147.63 1044.75C1203.22 1043.06 1225.66 1116.14 1189.42 1152.77C1179.07 1163.23 1164.8 1168.6 1150.11 1168.24C1134.1 1167.87 1124.19 1163.52 1111.23 1154.92C1111.38 1161.87 1113.07 1205.58 1111.03 1209.16L1078.48 1209.03C1077.1 1204.18 1077.66 1169.71 1077.65 1161.21C1077.41 1123.16 1077.41 1085.11 1077.66 1047.05L1110.1 1046.96ZM1148.56 1138.67C1187.43 1126.36 1177.63 1068.31 1133.27 1074.28C1097.91 1089.29 1104.8 1142.15 1148.56 1138.67Z"/><path fill="#30A6BF" d="M1078.48 1209.03C1079.84 1202.31 1079.51 1194.87 1079.54 1188.01C1079.81 1193.52 1079.27 1200.41 1082.74 1204.11C1089.85 1206.93 1104.82 1201.73 1110.01 1205.83L1111.03 1209.16L1078.48 1209.03Z"/><path fill="#3375A2" d="M1594.42 671.189C1595.26 666.917 1596.14 662.653 1597.06 658.399C1597.5 662.879 1593.96 690.141 1593.32 697.743C1590.37 734.981 1587.64 772.237 1585.13 809.507C1584.3 820.148 1577.63 882.939 1582.93 888.289L1615.22 909.334C1617.5 914.567 1622.89 925.919 1623.72 931.08C1613.85 933.541 1562.19 931.841 1548.57 931.949C1543.11 908.2 1531.88 875.605 1524.34 852.065C1516.88 832.99 1509.59 799.595 1503.56 778.844C1501.16 778.041 1499.77 779.351 1496.87 780.633C1503.9 772.987 1514.25 762.213 1520.3 754.166C1524.11 750.203 1527.17 746.491 1530.67 742.252C1533.35 740.324 1545.63 725.862 1548.76 722.45C1563.2 706.68 1577.53 689.002 1592.71 674.026L1594.42 671.189Z"/><path fill="#125360" d="M1592.71 674.026C1593.63 678.866 1573.92 722.245 1570.85 729.483L1536.95 811.527C1531.99 823.535 1523.26 839.496 1524.34 852.065C1516.88 832.99 1509.59 799.595 1503.56 778.844C1501.16 778.041 1499.77 779.351 1496.87 780.633C1503.9 772.987 1514.25 762.213 1520.3 754.166C1524.11 750.203 1527.17 746.491 1530.67 742.252C1533.35 740.324 1545.63 725.862 1548.76 722.45C1563.2 706.68 1577.53 689.002 1592.71 674.026Z"/><path fill="#EA7A55" d="M1549.04 930.749C1558.57 920.024 1569.66 900.139 1579.66 888.946C1580.94 888.689 1582.03 888.47 1582.93 888.289L1615.22 909.334C1617.5 914.567 1622.89 925.919 1623.72 931.08C1607.25 929.487 1566.52 930.706 1549.04 930.749Z"/><path fill="#0f172a" d="M1425.17 1002.09L1447.44 1002.06C1447.28 1022.79 1446.84 1044.46 1447.3 1065.11C1512.98 1007.91 1583.79 1096.67 1529.61 1153.36C1505.95 1176.05 1467.78 1172.02 1446.43 1147.73L1446.95 1166.48L1424.87 1166.54C1426.03 1113.01 1425.24 1055.77 1425.17 1002.09ZM1489.47 1147.84C1511.75 1146.21 1528.5 1126.84 1526.89 1104.56C1525.27 1082.28 1505.91 1065.52 1483.62 1067.12C1461.33 1068.72 1444.55 1088.11 1446.17 1110.41C1447.78 1132.7 1467.18 1149.47 1489.47 1147.84Z"/><path fill="#0f172a" d="M1716.73 1002.59L1734.47 1002.8L1734.44 1166.35C1729.24 1166.68 1723.02 1166.58 1717.72 1166.63C1717.58 1159.57 1717.57 1152.51 1717.69 1145.45C1696.47 1168.98 1671.7 1174.45 1642.76 1160.08C1591.9 1127.97 1612.68 1045.77 1674.63 1047.58C1694.64 1048.17 1704.25 1055.17 1717.58 1069.01C1716.85 1047.29 1717.02 1024.44 1716.73 1002.59ZM1684.28 1150.83C1708.01 1145.47 1722.98 1121.99 1717.82 1098.21C1712.66 1074.44 1689.31 1059.27 1665.49 1064.22C1641.38 1069.23 1625.98 1092.94 1631.2 1117C1636.42 1141.07 1660.26 1156.26 1684.28 1150.83Z"/><path fill="#279BB6" d="M856.472 1046.05C874.921 1044.96 891.018 1044.35 907.335 1054.56C920.595 1062.89 929.904 1076.25 933.129 1091.57C941.126 1127.78 921.584 1159.11 885.238 1166.93C867.308 1168.75 850.302 1169.08 834.084 1159.71C820.367 1151.64 810.439 1138.43 806.505 1123.01C796.436 1084.17 819.737 1055.57 856.472 1046.05ZM876.505 1138.68C914.177 1127.1 907.556 1069.4 862.277 1074.16C853.022 1077.74 847.071 1081.89 842.81 1091.29C838.801 1100.03 838.432 1110.01 841.785 1119.03C847.908 1135.08 860.396 1139.59 876.505 1138.68Z"/><path fill="#0f172a" d="M1327.68 1047.53C1329.95 1047.37 1332.22 1047.27 1334.5 1047.22C1349.93 1046.89 1365.27 1048.54 1376.87 1059.9C1381.94 1064.93 1385.58 1071.22 1387.41 1078.13C1390.94 1091.14 1389.82 1149.63 1389.82 1166.57C1382.11 1166.83 1375.52 1168.84 1370.05 1164.6C1368.14 1160.73 1369 1156.11 1369.27 1151.59C1351.06 1170.51 1324.66 1172.86 1301.09 1160.98C1295.61 1158.22 1291.97 1153.13 1288.82 1147.99C1274.54 1112.41 1302.73 1098.03 1333.69 1097.86C1344.99 1097.8 1356.21 1098.12 1367.51 1098.45C1366.16 1066.32 1344.87 1061.81 1317.11 1069.28C1310.4 1071.08 1303.94 1075.42 1297.93 1079L1288.8 1062.8C1302.13 1053.37 1311.77 1049.93 1327.68 1047.53ZM1316.8 1147.08C1328.03 1151.12 1338.85 1152.83 1350.18 1147.66C1358.1 1144.11 1364.18 1137.44 1366.98 1129.23C1368.24 1125.42 1369.77 1115.5 1365.17 1113.54C1348.51 1113.82 1306.23 1108.05 1307.91 1133.57C1308.32 1139.91 1311.86 1143.56 1316.8 1147.08Z"/><path fill="#279BB6" d="M958.7 1130.1C974.192 1137.03 1008.92 1150.55 1022.54 1135.16C1026.66 1123.01 1004.28 1120.03 995.704 1119.35C961.531 1116.61 934.486 1091.38 961.723 1059.47C977.065 1041.5 1011.85 1044.29 1033.37 1047.5C1058.11 1051.19 1048.65 1064.28 1041.05 1080.08C1027.18 1073.44 1011.29 1069.29 995.918 1072.33C989.568 1073.59 983.03 1077.64 984.682 1084.93C995.475 1098.27 1045.25 1090.05 1054.37 1117.95C1060.32 1136.14 1050.99 1156 1033.05 1162.53C1017.28 1169.55 988.49 1170.69 972.96 1164.76C965.224 1163.72 954.632 1158.5 947.922 1154.61C951.667 1146.53 955.582 1138.44 958.7 1130.1Z"/><path fill="#30A6BF" d="M972.96 1164.76L974.825 1163.4C979.077 1162.72 987.258 1164.12 993.483 1164.17C1005.77 1164.27 1018.15 1163.25 1030.38 1161.09C1031.27 1161.57 1032.16 1162.05 1033.05 1162.53C1017.28 1169.55 988.49 1170.69 972.96 1164.76Z"/><path fill="#0f172a" d="M1814.79 1048.3C1817.79 1047.95 1820.81 1047.78 1823.84 1047.79C1861.45 1047.82 1880.32 1078.42 1880.1 1113.15C1867.22 1113.14 1790.16 1111.59 1782.59 1114.21C1778.42 1125.12 1796.79 1143.87 1806.43 1147.89C1821.39 1154.12 1832.27 1154.03 1847.3 1148.93C1853.77 1146.16 1858.87 1142.6 1864.31 1138.23L1873 1148C1853.93 1172.26 1814.7 1173.2 1790.32 1157.01C1777.57 1148.48 1768.83 1135.15 1766.07 1120.06C1759.35 1084.8 1779.19 1054.56 1814.79 1048.3ZM1781.69 1100.71C1799.21 1100.93 1816.73 1100.94 1834.25 1100.74L1863.43 1100.88C1860.58 1073.22 1841.21 1060.27 1814.28 1063.22L1813.45 1063.32C1792 1069.45 1786.13 1079.68 1781.69 1100.71Z"/><path fill="#0f172a" d="M1232.98 1002.34L1256.12 1002.55C1256.28 1056.76 1256.93 1112.48 1256.06 1166.58L1232.96 1166.51L1232.98 1002.34Z"/><path fill="#0f172a" d="M1995.52 1049.34L2010.73 1049.4C1999.35 1075.04 1987.77 1100.59 1975.99 1126.05C1970.23 1138.73 1963.01 1153.84 1958.24 1166.76L1941.15 1166.95L1899.79 1073.31C1896.33 1065.35 1892.94 1057.36 1889.12 1049.56L1906.86 1049.64L1933.18 1110.5C1937.44 1120.3 1944.82 1138.26 1950.01 1146.87C1959.11 1132.22 1986.93 1058.35 1995.52 1049.34Z"/><path fill="#0f172a" d="M1082.09 1246.98C1097.16 1243.78 1111.97 1253.42 1115.14 1268.5C1118.32 1283.58 1108.65 1298.37 1093.57 1301.51C1078.52 1304.65 1063.77 1295.02 1060.61 1279.98C1057.44 1264.93 1067.06 1250.17 1082.09 1246.98ZM1093.54 1295.55C1101.23 1293.45 1107.19 1287.37 1109.14 1279.64C1111.09 1271.91 1108.73 1263.73 1102.96 1258.23C1097.19 1252.72 1088.9 1250.75 1081.28 1253.07C1069.71 1256.59 1063.1 1268.74 1066.46 1280.36C1069.81 1291.98 1081.88 1298.75 1093.54 1295.55Z"/><path fill="#0f172a" d="M1594.66 1247.34C1604.13 1247.73 1613.21 1246.35 1622.78 1248.26C1634.52 1250.62 1638.45 1260.08 1635.71 1271.17C1634.29 1276.92 1629.33 1279.41 1624.45 1281.95C1627.29 1285.77 1636.05 1295.68 1634.57 1300.02L1630.96 1300.42C1626.7 1294.28 1623.35 1289.55 1618.56 1283.73L1600.71 1283.63C1601.02 1289.09 1602.22 1295.29 1599.38 1299.56L1596.82 1299.79C1593.59 1296.01 1594.76 1256.11 1594.66 1247.34ZM1600.47 1278.1C1610.02 1278.29 1618.38 1279.59 1626.67 1275.07C1641.78 1251.7 1615.54 1252.42 1600.48 1253.01L1600.47 1278.1Z"/><path fill="#0f172a" d="M1319.49 1247.4C1335.69 1246.9 1363.87 1243.78 1357.68 1271.13C1356.43 1276.69 1351.26 1279.94 1346.54 1282.49C1349.69 1286.67 1356.46 1294.54 1356.89 1299.42L1355.43 1300.51C1351.7 1300.19 1353.19 1300.92 1350.65 1298.61C1347.28 1293.46 1343.66 1287.46 1339.4 1283.11C1334.19 1282.74 1328.19 1282.94 1322.9 1283C1323.12 1287.97 1324.24 1296.33 1321.63 1300.17L1319.26 1300.49L1317.95 1299.44C1316.19 1290.18 1317.46 1262.37 1316.87 1251.17C1316.75 1248.79 1317.77 1248.68 1319.49 1247.4ZM1322.86 1277.97C1332.55 1278.15 1341.21 1279.47 1349.59 1274.77C1361.89 1252.58 1338.85 1251.84 1323.58 1253.43C1322.25 1260.58 1323 1270.46 1322.86 1277.97Z"/><path fill="#0f172a" fill-opacity="0.98823529" d="M1548.47 1246.45C1550.26 1246.81 1551.87 1247.41 1553.6 1248C1555.61 1250.46 1576.14 1295.55 1577.36 1299.18C1575.5 1300.49 1575.84 1300.03 1572.98 1299.83C1569.34 1297.6 1567.11 1291.09 1565.14 1286.84L1554.04 1286.72L1535.3 1286.77C1533.45 1291.21 1531.92 1296.12 1528.62 1299.41C1525.7 1300.22 1527.02 1300.39 1524.51 1299.23C1524.38 1296.43 1545.6 1250.75 1548.47 1246.45ZM1538.01 1281.28L1552.75 1281.41L1563.36 1281.42C1559.99 1275.14 1553.84 1258.82 1549.95 1255.46L1538.01 1281.28Z"/><path fill="#0f172a" fill-opacity="0.98823529" d="M1270.71 1246.86C1272.83 1247.41 1275.43 1247.71 1276.5 1249.79C1280.13 1256.83 1300.37 1295.45 1299.31 1300.29C1296.81 1301.09 1298.16 1300.97 1295.12 1299.82C1291.94 1296.78 1289.59 1290.6 1287.7 1286.39L1278.25 1286.41L1257.29 1286.51C1255.5 1291.42 1253.73 1300.33 1247.58 1299.41L1247.2 1297.46C1249.26 1290.87 1266.86 1252.23 1270.71 1246.86ZM1259.81 1281.3L1275.25 1281.37L1284.84 1281.11C1282.36 1275.43 1275.79 1258.51 1271.79 1255.46C1267.88 1264.11 1263.89 1272.72 1259.81 1281.3Z"/><path fill="#0f172a" d="M1670.74 1247.48C1676.77 1247.39 1693.53 1246.33 1696.79 1251L1697.34 1250.52L1696.57 1249.72L1695.17 1251.63C1687.51 1253.64 1672.6 1252.96 1663.95 1253.01L1663.88 1271.14C1668.9 1271.13 1688.83 1270.42 1691.85 1272.05L1692.07 1274.43C1687.39 1279.1 1669.8 1273.54 1664.34 1277.64L1663.89 1281.75L1663.97 1295.12C1673.16 1295.14 1683.44 1294.89 1692.71 1295.06C1694.88 1295.11 1696.05 1296.86 1697.03 1298.35L1695.85 1299.76C1687.99 1301.53 1666.82 1300.64 1658.09 1300.49C1658.61 1284.54 1658.86 1263.36 1657.94 1247.62L1670.74 1247.48Z"/><path fill="#0f172a" fill-opacity="0.98039216" d="M1713.72 1247.32C1720.17 1247.29 1752.13 1245.7 1754.56 1249.72C1752.46 1257.79 1727.65 1285.36 1720.47 1295.12C1728.42 1295.59 1752.42 1293.78 1757.04 1297.12L1757.59 1300.87C1750.85 1300.96 1717.55 1302.22 1713.73 1299.82C1713.22 1292.14 1742.9 1259.64 1749.17 1252.54C1741.37 1252.61 1718.71 1254.57 1713.52 1250.94L1713.72 1247.32Z"/><path fill="#0f172a" fill-opacity="0.98431373" d="M1465.94 1246.87C1466.32 1247 1469.06 1248.32 1469.11 1248.45C1473.42 1261.24 1462.24 1291.76 1481.34 1295.36C1514.89 1301.68 1495.77 1253.71 1504.35 1247.03C1508.38 1248.53 1507.75 1250.25 1507.98 1253.75C1508.08 1260.47 1508.11 1267.2 1508.09 1273.93C1507.99 1281.33 1506.82 1292.61 1501.29 1295.81C1472.4 1312.51 1461.14 1289.16 1463.64 1263.57C1464.18 1258.11 1460.79 1250.55 1465.94 1246.87Z"/><path fill="#0f172a" d="M1419.47 1247.21C1428.66 1246.2 1433.08 1247.41 1441.29 1251.35L1441.69 1253.61L1442.45 1252.67C1435.42 1258.01 1429.09 1250.5 1421.18 1252.3C1415.08 1253.7 1409.68 1257.23 1410.96 1264.04C1418.1 1273.22 1441.52 1271.21 1443.77 1284.53C1445.88 1297.03 1434.07 1299.97 1424.29 1301.47C1417.93 1301.05 1405.28 1299.98 1404.21 1292.42L1405.04 1291.45C1413.35 1293.98 1439.36 1302.29 1438.36 1285.38C1433.35 1276.05 1410.11 1277.87 1405.96 1266.47C1402.02 1255.64 1410.76 1249.87 1419.47 1247.21Z"/><path fill="#0f172a" d="M1148.21 1247.31C1149.33 1247.2 1150.45 1247.12 1151.57 1247.06C1158.34 1246.73 1164.04 1248.14 1169.16 1252.76L1168.7 1255.35L1169.73 1253.92C1164.06 1258.7 1158.5 1251.35 1151.37 1252.02C1144.59 1252.66 1138.21 1256.49 1138.75 1263.59C1146.07 1274.36 1184.35 1272.72 1168.45 1294.4C1164.31 1300.03 1157.71 1300.46 1151.31 1301.07C1145.11 1300.6 1132.53 1299.23 1131.86 1291.76C1135.27 1290.81 1168.72 1305.77 1165.27 1284.53C1159.2 1274.56 1137.36 1277.8 1133.36 1265.73C1129.74 1254.8 1139.12 1249.86 1148.21 1247.31Z"/><path fill="#0f172a" d="M1208.41 1247.15C1216.42 1246.16 1230.11 1246.25 1232.8 1255.75L1231.69 1257.46C1228.21 1256.9 1223.34 1254.58 1219.86 1253.49C1197.24 1246.35 1184.21 1274.31 1199.62 1290.24C1204.61 1295.39 1212.33 1296.06 1218.96 1296.11C1226.64 1294.14 1227.23 1290.6 1233.6 1290.96L1233.74 1292.44C1231.18 1295.96 1227.7 1298.7 1223.69 1300.36C1194.52 1312.31 1165.74 1261.98 1208.41 1247.15Z"/><path fill="#0f172a" d="M1576.19 1141.56C1583.1 1139.15 1590.67 1142.73 1593.19 1149.6C1595.71 1156.47 1592.26 1164.09 1585.43 1166.73C1580.91 1168.47 1575.81 1167.64 1572.07 1164.56C1568.34 1161.48 1566.56 1156.62 1567.41 1151.86C1568.26 1147.09 1571.62 1143.16 1576.19 1141.56Z"/></svg>